<?xml version="1.0" standalone="no"?>
<!DOCTYPE svg PUBLIC "-//W3C//DTD SVG 20010904//EN"
 "http://www.w3.org/TR/2001/REC-SVG-20010904/DTD/svg10.dtd">
<svg version="1.0" xmlns="http://www.w3.org/2000/svg"
 width="16.000000pt" height="16.000000pt" viewBox="0 0 16.000000 16.000000"
 preserveAspectRatio="xMidYMid meet">
<metadata>
Created by potrace 1.11, written by Peter Selinger 2001-2013
</metadata>
<g transform="translate(0.000000,16.000000) scale(0.004278,-0.004278)"
fill="#000000" stroke="none">
<path d="M1725 3604 c-140 -19 -193 -29 -280 -51 -612 -153 -1106 -647 -1258
-1258 -44 -174 -52 -242 -52 -435 0 -193 8 -261 52 -435 152 -611 647 -1106
1258 -1258 174 -44 242 -52 435 -52 193 0 261 8 435 52 611 152 1106 647 1258
1258 44 174 52 242 52 435 0 193 -8 261 -52 435 -87 349 -288 669 -568 903
-244 205 -511 328 -840 388 -77 15 -378 27 -440 18z m359 -272 c2 -4 1 -25 -4
-47 -9 -46 -46 -221 -60 -280 -15 -66 -37 -170 -80 -375 -22 -107 -45 -213
-50 -235 -5 -22 -16 -74 -25 -115 -9 -41 -20 -93 -25 -115 -5 -22 -39 -179
-75 -350 -36 -170 -69 -325 -75 -344 -11 -42 -2 -57 45 -65 33 -7 194 -84 390
-188 243 -130 422 -165 590 -119 38 11 73 17 77 14 9 -5 5 -41 -14 -128 -25
-115 -100 -234 -172 -273 -21 -10 -54 -16 -101 -15 -143 2 -252 59 -545 289
-299 234 -398 285 -600 308 -106 13 -102 7 -80 101 5 22 39 180 75 350 36 171
72 337 80 370 8 33 21 94 29 135 9 41 23 107 31 145 8 39 19 90 24 115 6 25
37 173 71 328 34 156 59 286 56 289 -12 12 -117 -58 -178 -118 -49 -49 -77
-88 -107 -150 -68 -141 -87 -325 -45 -428 8 -18 14 -37 14 -42 0 -27 -160 6
-214 44 -78 55 -102 233 -50 365 32 80 92 167 169 246 126 127 363 246 570
284 61 12 272 15 279 4z"/>
</g>
</svg>
