<?xml version="1.0" encoding="iso-8859-1"?>
<!-- Generator: Adobe Illustrator 19.0.0, SVG Export Plug-In . SVG Version: 6.00 Build 0)  -->
<svg version="1.1" id="Layer_1" xmlns="http://www.w3.org/2000/svg" xmlns:xlink="http://www.w3.org/1999/xlink" x="0px" y="0px"
	 viewBox="0 0 512 512" style="enable-background:new 0 0 512 512;" xml:space="preserve">
<circle style="fill:#273B7A;" cx="256" cy="256" r="256"/>
<path style="fill:#121149;" d="M350.932,493.809c89.25-35.661,153.719-120.103,160.465-220.372L371.66,133.701l-20.711,37.386
	l-0.421-0.421H238.187l-97.602,65.793l101.309,101.309l-38.088,8.914L350.932,493.809z"/>
<path style="fill:#FEE187;" d="M140.585,236.46c2.608,3.625,7.349,5.051,11.528,3.481c0.06-0.022,0.119-0.045,0.179-0.064
	l70.749-23.554c-0.016-0.569-0.003-1.141,0.034-1.717c0.591-9.035,7.577-16.293,16.556-17.205l42.639-4.429
	c2.698-0.281,5.11,1.679,5.389,4.375c0.281,2.698-1.677,5.172-4.375,5.389l-42.639,4.429c-4.208,0.459-7.496,3.837-7.773,8.08
	c-0.15,2.315,0.609,4.553,2.139,6.296c1.531,1.745,3.651,2.789,5.966,2.939l56.611,3.691c6.358,0.412,12.671-0.991,18.253-4.065
	l74.662-41.115l-20.218-40.769l-18.754,16.362c-7.966,6.947-18.516,9.942-28.948,8.208l-62.69-10.418
	c-11.488-1.527-23.004,1.338-32.435,8.066l-85.354,58.782C138.29,226.557,137.612,232.331,140.585,236.46z"/>
<g>
	<path style="fill:#FFEDB5;" d="M240.647,207.165c-4.208,0.459-7.496,3.837-7.773,8.08c-0.15,2.315,0.609,4.553,2.139,6.296
		c1.531,1.745,3.651,2.789,5.966,2.939l12.59,0.821v-19.478L240.647,207.165z"/>
	<path style="fill:#FFEDB5;" d="M140.585,236.46c2.608,3.624,7.349,5.051,11.528,3.481c0.06-0.022,0.119-0.045,0.179-0.064
		l70.749-23.554c-0.016-0.569-0.003-1.141,0.033-1.717c0.591-9.035,7.578-16.293,16.556-17.205l13.936-1.448v-39.977
		c-9.326,0.057-18.413,2.972-26.11,8.464l-85.354,58.782C138.29,226.557,137.612,232.331,140.585,236.46z"/>
</g>
<path style="fill:#FF314F;" d="M251.664,392.137c2.076,3.062,6.596,3.062,8.67,0c16.574-24.454,75.005-54.818,75.005-94.136
	c0-27.115-17.761-39.671-39.671-39.671s-39.671,17.761-39.671,39.671c0-21.909-17.761-39.671-39.671-39.671
	s-39.671,12.555-39.671,39.671C176.659,337.32,235.091,367.685,251.664,392.137z"/>
<path style="fill:#A30F44;" d="M295.671,258.332c-21.909,0-39.671,17.761-39.671,39.671c0-0.097-0.014-0.19-0.014-0.288v96.716
	c1.653,0.005,3.308-0.759,4.349-2.294c16.574-24.452,75.005-54.818,75.005-94.136C335.341,270.888,317.58,258.332,295.671,258.332z"
	/>
<rect x="352.986" y="139.47" transform="matrix(0.8256 -0.5643 0.5643 0.8256 -31.0164 239.9867)" style="fill:#D35933;" width="39.418" height="61.392"/>
<polygon style="fill:#B54324;" points="406.302,184.384 388.954,159.003 356.917,181.986 373.76,206.626 "/>
<g>
</g>
<g>
</g>
<g>
</g>
<g>
</g>
<g>
</g>
<g>
</g>
<g>
</g>
<g>
</g>
<g>
</g>
<g>
</g>
<g>
</g>
<g>
</g>
<g>
</g>
<g>
</g>
<g>
</g>
</svg>
