<?xml version="1.0" encoding="iso-8859-1"?>
<!-- Generator: Adobe Illustrator 19.0.0, SVG Export Plug-In . SVG Version: 6.00 Build 0)  -->
<svg version="1.1" id="Layer_1" xmlns="http://www.w3.org/2000/svg" xmlns:xlink="http://www.w3.org/1999/xlink" x="0px" y="0px"
	 viewBox="0 0 512 512" style="enable-background:new 0 0 512 512;" xml:space="preserve">
<circle style="fill:#273B7A;" cx="256" cy="256" r="256"/>
<g>
	<path style="fill:#121149;" d="M490.394,359.046l-197.48-197.48l-10.312,17.429l-78.731-77.984l-43.296,29.181l-5.203,14.012
		l79.639,79.641l-13.145,10.378l94.748,94.748l-1.733,1.034l-32.889-32.889l-60.137-0.559l-75.036,31.703l-35.094,83.513
		l95.584,95.584C223.075,510.392,239.349,512,256,512C360.722,512,450.743,449.112,490.394,359.046z"/>
	<path style="fill:#121149;" d="M388.051,142.953l-12.202,6.99l-33.09,39.717l154.074,153.324
		c8.663-23.98,13.836-49.623,14.931-76.321L388.051,142.953z"/>
</g>
<path style="fill:#FFEDB5;" d="M401.606,278.219c-3.303-4.591-9.307-6.397-14.601-4.41c-0.076,0.029-0.152,0.055-0.228,0.081
	l-89.619,29.836c0.019,0.721,0.005,1.445-0.043,2.174c-0.748,11.445-9.599,20.639-20.971,21.792l-54.01,5.61
	c-3.417,0.357-6.472-2.126-6.827-5.541c-0.357-3.417,2.126-6.551,5.541-6.827l54.01-5.61c5.33-0.581,9.495-4.86,9.847-10.235
	c0.191-2.934-0.772-5.766-2.712-7.975c-1.939-2.21-4.624-3.532-7.558-3.724l-71.711-4.675c-8.054-0.522-16.05,1.255-23.121,5.148
	l-94.575,52.079l25.612,51.645l23.757-20.725c10.09-8.801,23.455-12.593,36.667-10.397l79.41,13.196
	c14.551,1.934,29.139-1.695,41.088-10.218l108.118-74.461C404.513,290.763,405.371,283.45,401.606,278.219z"/>
<g>
	<path style="fill:#FEE187;" d="M274.856,315.326c5.33-0.581,9.495-4.86,9.847-10.235c0.191-2.934-0.772-5.766-2.712-7.975
		c-1.939-2.21-4.624-3.532-7.558-3.724l-15.948-1.04v24.673L274.856,315.326z"/>
	<path style="fill:#FEE187;" d="M401.606,278.219c-3.303-4.591-9.307-6.397-14.601-4.41c-0.076,0.029-0.152,0.055-0.228,0.081
		l-89.619,29.836c0.019,0.721,0.005,1.445-0.043,2.174c-0.748,11.445-9.599,20.639-20.971,21.792l-17.653,1.834v50.641
		c11.812-0.072,23.323-3.765,33.073-10.721l108.118-74.459C404.513,290.763,405.371,283.45,401.606,278.219z"/>
</g>
<circle style="fill:#FFC61B;" cx="256" cy="196.525" r="50.855"/>
<g>
	<path style="fill:#EAA22F;" d="M256,145.67c-0.01,0-0.019,0-0.029,0v101.71c0.01,0,0.019,0,0.029,0
		c28.086,0,50.855-22.769,50.855-50.855S284.086,145.67,256,145.67z"/>
	<circle style="fill:#EAA22F;" cx="256" cy="196.525" r="34.959"/>
</g>
<path style="fill:#FF5419;" d="M256,161.566c-0.01,0-0.019,0-0.029,0v69.918c0.01,0,0.019,0,0.029,0
	c19.308,0,34.959-15.651,34.959-34.959S275.306,161.566,256,161.566z"/>
<circle style="fill:#FFC61B;" cx="180.786" cy="123.906" r="32.539"/>
<g>
	<path style="fill:#EAA22F;" d="M180.795,91.367c-0.007,0-0.012,0-0.019,0v65.077c0.007,0,0.012,0,0.019,0
		c17.97,0,32.539-14.569,32.539-32.539S198.765,91.367,180.795,91.367z"/>
	<circle style="fill:#EAA22F;" cx="180.786" cy="123.906" r="22.368"/>
</g>
<path style="fill:#FF5419;" d="M180.795,101.538c-0.007,0-0.012,0-0.019,0v44.735c0.007,0,0.012,0,0.019,0
	c12.354,0,22.368-10.014,22.368-22.368S193.148,101.538,180.795,101.538z"/>
<circle style="fill:#FFC61B;" cx="365.675" cy="166.564" r="32.539"/>
<g>
	<path style="fill:#EAA22F;" d="M365.684,134.034c-0.007,0-0.012,0-0.019,0v65.077c0.007,0,0.012,0,0.019,0
		c17.97,0,32.539-14.569,32.539-32.539S383.653,134.034,365.684,134.034z"/>
	<circle style="fill:#EAA22F;" cx="365.675" cy="166.564" r="22.368"/>
</g>
<path style="fill:#FF5419;" d="M365.684,144.205c-0.007,0-0.012,0-0.019,0v44.735c0.007,0,0.012,0,0.019,0
	c12.353,0,22.368-10.014,22.368-22.368C388.051,154.219,378.037,144.205,365.684,144.205z"/>
<rect x="84.903" y="324.979" transform="matrix(0.8256 -0.5643 0.5643 0.8256 -188.5205 122.9425)" style="fill:#D35933;" width="39.418" height="82.887"/>
<polygon style="fill:#B54324;" points="144.268,389.529 120.077,354.133 87.823,376.799 111.726,411.772 "/>
<g>
</g>
<g>
</g>
<g>
</g>
<g>
</g>
<g>
</g>
<g>
</g>
<g>
</g>
<g>
</g>
<g>
</g>
<g>
</g>
<g>
</g>
<g>
</g>
<g>
</g>
<g>
</g>
<g>
</g>
</svg>
