<?xml version="1.0" encoding="iso-8859-1"?>
<!-- Generator: Adobe Illustrator 19.0.0, SVG Export Plug-In . SVG Version: 6.00 Build 0)  -->
<svg version="1.1" id="Layer_1" xmlns="http://www.w3.org/2000/svg" xmlns:xlink="http://www.w3.org/1999/xlink" x="0px" y="0px"
	 viewBox="0 0 512 512" style="enable-background:new 0 0 512 512;" xml:space="preserve">
<circle style="fill:#31BAFD;" cx="256" cy="256" r="256"/>
<path style="fill:#2B9ED8;" d="M507.499,303.938L335.951,132.391L233.303,362.02l11.779,23.273L256,412.444l85.064,85.063
	C426.005,467.59,490.41,394.142,507.499,303.938z"/>
<path style="fill:#324A5E;" d="M142.222,213.333c0-62.838,50.94-113.778,113.778-113.778s113.778,50.94,113.778,113.778
	C369.778,323.089,256,412.444,256,412.444S142.222,318.492,142.222,213.333z"/>
<path style="fill:#2B3B4E;" d="M256,99.556c-0.193,0-0.381,0.014-0.574,0.014v312.392c0.365,0.309,0.574,0.483,0.574,0.483
	s113.778-89.355,113.778-199.111C369.778,150.495,318.838,99.556,256,99.556z"/>
<circle style="fill:#FFD15D;" cx="256" cy="213.333" r="83.609"/>
<path style="fill:#F9B54C;" d="M256,129.724c-0.193,0-0.381,0.014-0.574,0.014v167.19c0.193,0,0.381,0.014,0.574,0.014
	c46.177,0,83.609-37.433,83.609-83.609C339.609,167.157,302.177,129.724,256,129.724z"/>
<path style="fill:#324A5E;" d="M256,149.549c-35.171,0-63.785,28.613-63.785,63.785s28.613,63.785,63.785,63.785
	s63.785-28.613,63.785-63.785S291.171,149.549,256,149.549z M294.324,209.886c-0.226-7.404-1.186-14.431-2.753-20.906
	c11.359,5.129,19.225,12.585,20.951,20.906H294.324z M287.416,209.886h-27.969v-27.97c8.602,0.302,16.755,1.717,23.985,3.984
	C285.699,193.131,287.115,201.283,287.416,209.886z M259.448,175.007v-18.196c8.32,1.726,15.777,9.59,20.904,20.949
	C273.879,176.194,266.852,175.233,259.448,175.007z M252.552,156.812v18.196c-7.404,0.226-14.431,1.186-20.904,2.751
	C236.777,166.4,244.233,158.537,252.552,156.812z M252.552,181.915v27.97h-27.969c0.302-8.602,1.717-16.756,3.984-23.988
	C235.798,183.632,243.95,182.217,252.552,181.915z M217.676,209.886h-18.198c1.726-8.321,9.59-15.779,20.951-20.908
	C218.862,195.453,217.902,202.481,217.676,209.886z M217.676,216.781c0.226,7.404,1.186,14.431,2.753,20.906
	c-11.359-5.129-19.223-12.585-20.949-20.906H217.676z M224.584,216.781h27.969v27.969c-8.602-0.302-16.755-1.717-23.985-3.984
	C226.301,233.536,224.885,225.383,224.584,216.781z M252.552,251.657v18.198c-8.321-1.726-15.777-9.59-20.906-20.949
	C238.121,250.471,245.148,251.432,252.552,251.657z M259.448,269.855v-18.198c7.404-0.228,14.431-1.186,20.906-2.751
	C275.225,260.265,267.769,268.129,259.448,269.855z M259.448,244.75v-27.969h27.969c-0.302,8.602-1.717,16.755-3.984,23.985
	C276.202,243.033,268.05,244.448,259.448,244.75z M294.324,216.781h18.198c-1.726,8.321-9.59,15.777-20.949,20.906
	C293.138,231.212,294.098,224.185,294.324,216.781z M308.405,191.197c-5.096-4.408-11.695-8.116-19.401-10.868
	c-2.753-7.706-6.461-14.305-10.868-19.401C291.733,166.693,302.64,177.6,308.405,191.197z M233.863,160.928
	c-4.408,5.096-8.114,11.693-10.867,19.399c-7.706,2.753-14.305,6.461-19.401,10.868
	C209.361,177.598,220.269,166.693,233.863,160.928z M203.595,235.47c5.096,4.408,11.695,8.116,19.401,10.868
	c2.753,7.706,6.461,14.305,10.867,19.401C220.267,259.974,209.36,249.066,203.595,235.47z M278.137,265.738
	c4.408-5.096,8.116-11.695,10.868-19.401c7.706-2.753,14.305-6.461,19.401-10.868C302.64,249.066,291.733,259.974,278.137,265.738z"
	/>
<path style="fill:#2B3B4E;" d="M256,149.549c-0.193,0-0.383,0.012-0.574,0.014v127.54c0.191,0.002,0.381,0.014,0.574,0.014
	c35.171,0,63.785-28.613,63.785-63.785S291.171,149.549,256,149.549z M308.405,191.197c-5.096-4.408-11.695-8.116-19.401-10.868
	c-2.753-7.706-6.461-14.305-10.868-19.401C291.733,166.693,302.64,177.6,308.405,191.197z M312.522,209.886h-18.198
	c-0.226-7.404-1.186-14.431-2.753-20.906C302.932,194.108,310.796,201.564,312.522,209.886z M259.448,156.812
	c8.32,1.726,15.777,9.59,20.904,20.949c-6.473-1.567-13.502-2.526-20.904-2.753V156.812z M259.448,181.915
	c8.602,0.302,16.755,1.717,23.985,3.984c2.267,7.232,3.682,15.384,3.984,23.986h-27.969V181.915z M259.448,216.781h27.969
	c-0.302,8.602-1.717,16.755-3.984,23.985c-7.23,2.267-15.384,3.682-23.985,3.984V216.781z M259.448,269.855v-18.198
	c7.404-0.228,14.431-1.186,20.906-2.751C275.225,260.265,267.769,268.129,259.448,269.855z M278.137,265.738
	c4.408-5.096,8.116-11.695,10.868-19.401c7.706-2.753,14.305-6.461,19.401-10.868C302.64,249.066,291.733,259.974,278.137,265.738z
	 M291.573,237.687c1.567-6.475,2.526-13.502,2.753-20.906h18.198C310.796,225.102,302.932,232.558,291.573,237.687z"/>
<g>
</g>
<g>
</g>
<g>
</g>
<g>
</g>
<g>
</g>
<g>
</g>
<g>
</g>
<g>
</g>
<g>
</g>
<g>
</g>
<g>
</g>
<g>
</g>
<g>
</g>
<g>
</g>
<g>
</g>
</svg>
