<?xml version="1.0" encoding="iso-8859-1"?>
<!-- Generator: Adobe Illustrator 19.0.0, SVG Export Plug-In . SVG Version: 6.00 Build 0)  -->
<svg version="1.1" id="Layer_1" xmlns="http://www.w3.org/2000/svg" xmlns:xlink="http://www.w3.org/1999/xlink" x="0px" y="0px"
	 viewBox="0 0 512 512" style="enable-background:new 0 0 512 512;" xml:space="preserve">
<circle style="fill:#A0EBEF;" cx="256" cy="256" r="256"/>
<path style="fill:#71E2EF;" d="M511.814,265.297l-94.63-94.63l-159.173-8.332V410.29l86.13,86.13
	C439.339,461.509,508.014,371.667,511.814,265.297z"/>
<path style="fill:#FF7F4F;" d="M27.665,371.859C69.946,455.02,156.315,512,256,512c99.683,0,186.052-56.979,228.335-140.14
	l-41.674-41.674c-20.989-20.989-55.017-20.989-76.005,0L255.998,440.844L145.341,330.187c-20.989-20.989-55.017-20.989-76.005,0
	L27.665,371.859z"/>
<g>
	<path style="fill:#E06948;" d="M145.341,330.187c-10.537-10.537-24.361-15.781-38.172-15.738v149.835
		c40.926,29.299,90.834,46.842,144.808,47.675V436.82L145.341,330.187z"/>
	<path style="fill:#E06948;" d="M484.335,371.86l-41.674-41.674c-10.888-10.888-25.286-16.113-39.553-15.705v151.007
		C437.251,441.466,465.28,409.336,484.335,371.86z"/>
</g>
<rect x="246.519" y="142.222" style="fill:#EAA22F;" width="28.444" height="199.111"/>
<rect x="259.448" y="142.222" style="fill:#FF5419;" width="15.513" height="199.111"/>
<path style="fill:#D35933;" d="M256,512c68.724,0,131.119-27.086,177.104-71.156L294.002,301.742
	c-20.989-20.989-55.017-20.989-76.005,0l-139.1,139.1C124.881,484.914,187.277,512,256,512z"/>
<path style="fill:#B54324;" d="M294.002,301.742c-9.616-9.616-21.971-14.814-34.554-15.617v225.833
	c67.36-0.891,128.441-27.782,173.656-71.115L294.002,301.742z"/>
<polygon style="fill:#386895;" points="246.517,85.333 417.183,170.667 246.517,228.992 "/>
<polygon style="fill:#273B7A;" points="246.517,170.379 246.517,228.992 417.183,170.667 416.609,170.379 "/>
<g>
</g>
<g>
</g>
<g>
</g>
<g>
</g>
<g>
</g>
<g>
</g>
<g>
</g>
<g>
</g>
<g>
</g>
<g>
</g>
<g>
</g>
<g>
</g>
<g>
</g>
<g>
</g>
<g>
</g>
</svg>
