<?xml version="1.0" encoding="iso-8859-1"?>
<!-- Generator: Adobe Illustrator 19.0.0, SVG Export Plug-In . SVG Version: 6.00 Build 0)  -->
<svg version="1.1" id="Layer_1" xmlns="http://www.w3.org/2000/svg" xmlns:xlink="http://www.w3.org/1999/xlink" x="0px" y="0px"
	 viewBox="0 0 512 512" style="enable-background:new 0 0 512 512;" xml:space="preserve">
<circle style="fill:#273B7A;" cx="256" cy="256" r="256"/>
<path style="fill:#121149;" d="M506.38,309.517L300.129,103.265l-62.23,113.373l2.317,44.78l82.53,82.53l-3.372,3.372
	l-35.838-35.838l-45.609,2.872h-64.674l-66.696,105.463l83.627,83.627C211.185,509.016,233.243,512,256,512
	C379.028,512,481.771,425.208,506.38,309.517z"/>
<path style="fill:#FFEDB5;" d="M401.606,290.287c-3.303-4.591-9.307-6.397-14.601-4.41c-0.076,0.029-0.152,0.055-0.228,0.081
	l-89.619,29.836c0.019,0.721,0.005,1.445-0.043,2.174c-0.748,11.445-9.599,20.639-20.971,21.792l-54.01,5.61
	c-3.417,0.357-6.472-2.126-6.827-5.541c-0.357-3.417,2.126-6.551,5.541-6.827l54.01-5.61c5.33-0.581,9.495-4.86,9.847-10.235
	c0.191-2.934-0.772-5.766-2.712-7.975c-1.939-2.21-4.624-3.532-7.558-3.724l-71.711-4.675c-8.054-0.522-16.05,1.255-23.121,5.148
	L85.028,358.01l25.612,51.645l23.757-20.725c10.09-8.801,23.455-12.593,36.667-10.397l79.41,13.197
	c14.551,1.934,29.139-1.695,41.088-10.218l108.118-74.461C404.513,302.83,405.371,295.517,401.606,290.287z"/>
<g>
	<path style="fill:#FEE187;" d="M274.856,327.394c5.33-0.581,9.495-4.86,9.847-10.235c0.191-2.934-0.772-5.766-2.712-7.975
		c-1.939-2.21-4.624-3.532-7.558-3.724l-15.948-1.04v24.673L274.856,327.394z"/>
	<path style="fill:#FEE187;" d="M401.606,290.287c-3.303-4.591-9.307-6.397-14.601-4.41c-0.076,0.029-0.152,0.055-0.228,0.081
		l-89.619,29.836c0.019,0.721,0.005,1.445-0.043,2.174c-0.748,11.445-9.599,20.639-20.971,21.792l-17.653,1.834v50.641
		c11.812-0.072,23.323-3.765,33.073-10.721l108.118-74.459C404.513,302.83,405.371,295.517,401.606,290.287z"/>
</g>
<path style="fill:#FFC61B;" d="M317.433,145.984c0-34.749-28.85-62.757-63.902-61.385c-31.406,1.231-57.13,26.508-58.868,57.892
	c-1.193,21.556,8.735,40.855,24.567,52.7c10.107,7.561,16.291,19.247,16.291,31.868v21.314c0,11.309,9.168,20.478,20.478,20.478l0,0
	c11.309,0,20.478-9.168,20.478-20.478V227.4c0-12.793,6.247-24.642,16.465-32.34C307.815,183.851,317.433,166.043,317.433,145.984z"
	/>
<path style="fill:#EAA22F;" d="M255.426,84.573v184.248c0.193,0.005,0.381,0.029,0.574,0.029c11.309,0,20.478-9.168,20.478-20.478
	V227.4c0-12.793,6.247-24.642,16.465-32.34c14.874-11.209,24.492-29.017,24.492-49.076
	C317.433,111.866,289.616,84.263,255.426,84.573z"/>
<path style="fill:#A6A8AA;" d="M235.522,227.895v20.478c0,11.309,9.168,20.478,20.478,20.478l0,0
	c11.309,0,20.478-9.168,20.478-20.478v-20.48L235.522,227.895z"/>
<path style="fill:#808183;" d="M255.426,227.893v40.927c0.193,0.005,0.381,0.029,0.574,0.029c11.309,0,20.478-9.168,20.478-20.478
	v-20.48L255.426,227.893z"/>
<path style="fill:#FF5419;" d="M244.205,183.837c-1.143,0-2.296-0.348-3.291-1.076c-2.491-1.819-3.034-5.313-1.214-7.804
	l17.091-23.388H244.21c-2.103,0-4.027-1.181-4.98-3.056c-0.952-1.876-0.769-4.125,0.471-5.823l23.58-32.268
	c1.819-2.491,5.311-3.038,7.804-1.214c2.491,1.819,3.034,5.313,1.214,7.804L255.207,140.4h12.581c2.103,0,4.027,1.181,4.98,3.056
	c0.952,1.876,0.769,4.125-0.471,5.823l-23.581,32.268C247.625,183.044,245.927,183.837,244.205,183.837z"/>
<g>
	<path style="fill:#C92F00;" d="M272.3,117.01c1.82-2.491,1.277-5.985-1.214-7.804c-2.491-1.824-5.985-1.277-7.804,1.214
		l-7.856,10.75v18.932L272.3,117.01z"/>
	<path style="fill:#C92F00;" d="M267.79,140.398h-12.364v11.169h1.365l-1.365,1.869v18.93l16.874-23.09
		c1.241-1.698,1.422-3.949,0.471-5.823C271.819,141.581,269.893,140.398,267.79,140.398z"/>
</g>
<polygon style="fill:#D35933;" points="66.079,355.147 98.619,332.903 139.099,397.572 106.556,419.816 "/>
<polygon style="fill:#B54324;" points="139.099,397.572 118.574,364.784 86.176,387.256 106.556,419.816 "/>
<g>
</g>
<g>
</g>
<g>
</g>
<g>
</g>
<g>
</g>
<g>
</g>
<g>
</g>
<g>
</g>
<g>
</g>
<g>
</g>
<g>
</g>
<g>
</g>
<g>
</g>
<g>
</g>
<g>
</g>
</svg>
